<svg xmlns="http://www.w3.org/2000/svg" width="545" height="589" style="shape-rendering:geometricPrecision;text-rendering:geometricPrecision;image-rendering:optimizeQuality;fill-rule:evenodd;clip-rule:evenodd"><path style="opacity:.247" fill="#cadce8" d="M284.5 51.5c.304.65.637 1.316 1 2a686.696 686.696 0 0 1-37 1.5c-4.997.432-9.663 1.6-14 3.5-7.279.24-14.279 1.574-21 4 .948-1.478 2.281-2.478 4-3 5.294-.182 5.294-.682 0-1.5l10-1-1-1 12-1-6-1 14-1a9.465 9.465 0 0 0 2.5-1.5c11.624.042 23.457.042 35.5 0Z"/><path style="opacity:.995" fill="#6799d0" d="M284.5 51.5c1.653.16 2.986.826 4 2a2.427 2.427 0 0 0-2 .5c1.619.236 2.619 1.069 3 2.5-12.825-1.166-25.491-1.166-38 0-6.667.333-6.667.667 0 1v3c-3.03-1.03-6.03-1.03-9 0a22.576 22.576 0 0 0-8-2c4.337-1.9 9.003-3.068 14-3.5a686.696 686.696 0 0 0 37-1.5 44.147 44.147 0 0 1-1-2Z"/><path style="opacity:.996" fill="#4f8bc9" d="M251.5 56.5c12.509-1.166 25.175-1.166 38 0-1.802.958-3.802 1.625-6 2-4.562.394-9.229.394-14 0v3a24.939 24.939 0 0 0-7 .5c.556.383.889.883 1 1.5-2.559-.302-4.893.032-7 1h-3c.418-.722 1.084-1.222 2-1.5l-3-1 1-1c2.543-.14 4.877-.806 7-2-3.971-.06-6.971-.893-9-2.5Z"/><path style="opacity:.967" fill="#558dce" d="m289.5 56.5 18 2c2.083 1.473 4.416 2.64 7 3.5l-4 1a7.292 7.292 0 0 1 3 2c-2.861-.03-5.195.803-7 2.5h-3c-3.54-.253-6.873-.92-10-2a97.442 97.442 0 0 1 9-1.5 6.807 6.807 0 0 1-3-1.5l1-1c2.296-.072 4.63.094 7 .5a57.164 57.164 0 0 0-18-3c.556.383.889.883 1 1.5-2.888.51-5.221-.157-7-2 2.198-.375 4.198-1.042 6-2Z"/><path style="opacity:.329" fill="#c0d1e0" d="M288.5 53.5c5.676-.166 11.343 0 17 .5l-6 1c9.763 1.153 17.429 2.653 23 4.5 1.143 1.6.476 2.267-2 2a90.112 90.112 0 0 0-13-3l-18-2c-.381-1.431-1.381-2.264-3-2.5a2.427 2.427 0 0 1 2-.5Z"/><path style="opacity:.995" fill="#548dcb" d="M251.5 56.5c2.029 1.607 5.029 2.44 9 2.5-2.123 1.194-4.457 1.86-7 2l-1 1 3 1c-.916.278-1.582.778-2 1.5a127.752 127.752 0 0 0-29 5 133.584 133.584 0 0 0-16 2c-.034-3.676-1.701-4.843-5-3.5.556-.383.889-.883 1-1.5a39.31 39.31 0 0 1 9-4c6.721-2.426 13.721-3.76 21-4 2.766.17 5.433.836 8 2 2.97-1.03 5.97-1.03 9 0v-3c-6.667-.333-6.667-.667 0-1Z"/><path style="opacity:.996" fill="#528bcd" d="M283.5 58.5c1.779 1.843 4.112 2.51 7 2 3.744.48 3.577 1.146-.5 2a95.03 95.03 0 0 0-5.5-1 67.594 67.594 0 0 1-21 2c-.111-.617-.444-1.117-1-1.5a24.939 24.939 0 0 1 7-.5v-3c4.771.394 9.438.394 14 0Z"/><path style="opacity:.992" fill="#5c94cc" d="M293.5 65.5a659.416 659.416 0 0 0-37-1c2.107-.968 4.441-1.302 7-1a67.594 67.594 0 0 0 21-2 95.03 95.03 0 0 1 5.5 1c4.077-.854 4.244-1.52.5-2-.111-.617-.444-1.117-1-1.5a57.164 57.164 0 0 1 18 3 34.879 34.879 0 0 0-7-.5l-1 1a6.807 6.807 0 0 0 3 1.5 97.442 97.442 0 0 0-9 1.5Z"/><path style="opacity:.275" fill="#c0d0e3" d="M253.5 64.5h3c12.345-.013 24.678.32 37 1 3.127 1.08 6.46 1.747 10 2a27.162 27.162 0 0 1 5 3 241.497 241.497 0 0 0-39.5-3c-19.207.113-36.707 2.613-52.5 7.5l2 1-7 1c-16.169 6.118-31.503 14.952-46 26.5-.067-1.459.266-2.792 1-4 3.308-3.295 6.974-6.295 11-9 4.447-2.207 8.447-4.874 12-8 5.28-1.993 10.613-3.993 16-6a315.247 315.247 0 0 0 19-7 127.752 127.752 0 0 1 29-5Z"/><path style="opacity:.96" fill="#5992ca" d="M307.5 58.5c4.409.68 8.743 1.68 13 3 2.476.267 3.143-.4 2-2 1.527-.073 2.527.594 3 2-.438-.065-.772.101-1 .5a14.696 14.696 0 0 1 3 3.5 48.716 48.716 0 0 0-9 3l-6-2a11.99 11.99 0 0 1-6 1c1.805-1.697 4.139-2.53 7-2.5a7.292 7.292 0 0 0-3-2l4-1c-2.584-.86-4.917-2.027-7-3.5Z"/><path style="opacity:.337" fill="#becdda" d="M217.5 59.5c-1.719.522-3.052 1.522-4 3a39.31 39.31 0 0 0-9 4c-5.501.824-10.168 3.157-14 7-3.8 1.484-7.467 3.15-11 5 2.598-.972 2.598-1.972 0-3-.107-1.879.393-2.212 1.5-1 6.99-4.477 14.49-7.977 22.5-10.5l-1-1c1.284-.684 2.451-.517 3.5.5a21.703 21.703 0 0 1 6.5-3.5 12.935 12.935 0 0 1 5-.5Z"/><path style="opacity:.996" fill="#5e92cc" d="M204.5 66.5c-.111.617-.444 1.117-1 1.5 3.299-1.343 4.966-.176 5 3.5a133.584 133.584 0 0 1 16-2 315.247 315.247 0 0 1-19 7c1.009-1.44.676-2.772-1-4a51.28 51.28 0 0 0-6-2c-2.316 1.993-4.982 2.993-8 3 3.832-3.843 8.499-6.176 14-7Z"/><path style="opacity:.969" fill="#5b91cd" d="M327.5 65.5c4.326 1.161 8.659 2.328 13 3.5.556.383.889.883 1 1.5-3.659-1.183-7.325-1.183-11 0 2.266.814 4.6 1.314 7 1.5l-2 1a22.956 22.956 0 0 1 5 2 7.292 7.292 0 0 1-3 2c2.554 2.8 5.554 3.634 9 2.5.886.825 1.219 1.825 1 3-5.045-.19-9.378-2.023-13-5.5-5.313-.882-10.313-2.549-15-5a33.745 33.745 0 0 0-11-1.5 27.162 27.162 0 0 0-5-3h3a11.99 11.99 0 0 0 6-1l6 2a48.716 48.716 0 0 1 9-3Z"/><path style="opacity:.122" fill="#c4d2dd" d="M308.5 70.5a33.745 33.745 0 0 1 11 1.5c4.687 2.451 9.687 4.118 15 5 3.622 3.477 7.955 5.31 13 5.5a118.413 118.413 0 0 0 21 14 35.238 35.238 0 0 0 8 6c2.793 4.132 6.46 7.132 11 9l12 15v3c-26.48-30.415-57.48-49.582-93-57.5.916-.278 1.582-.778 2-1.5Z"/><path style="opacity:.996" fill="#538ccc" d="M205.5 76.5a4040.814 4040.814 0 0 0-16 6c-.291-1.15-1.124-1.816-2.5-2-1.573.345-2.74 1.011-3.5 2l-6-1.5c.881-.708 1.547-1.542 2-2.5 3.533-1.85 7.2-3.516 11-5 3.018-.007 5.684-1.007 8-3a51.28 51.28 0 0 1 6 2c1.676 1.228 2.009 2.56 1 4Z"/><path style="opacity:.992" fill="#578fcc" d="M341.5 70.5a143.545 143.545 0 0 1 19 9 728.436 728.436 0 0 0 8 5c.528 1.347.695 2.68.5 4-1.814-1.26-3.647-1.26-5.5 0a115.327 115.327 0 0 0 10 8c-1.595.934-3.261.934-5 0a118.413 118.413 0 0 1-21-14c.219-1.175-.114-2.175-1-3-3.446 1.134-6.446.3-9-2.5a7.292 7.292 0 0 0 3-2 22.956 22.956 0 0 0-5-2l2-1a26.708 26.708 0 0 1-7-1.5c3.675-1.183 7.341-1.183 11 0Z"/><path style="opacity:.051" fill="#becfd9" d="M325.5 61.5c2.321-.271 4.321.395 6 2l2-1c9.493 5.322 19.826 10.489 31 15.5-1.238.69-1.238 1.19 0 1.5-1.132.854-2.465.854-4 0a143.545 143.545 0 0 0-19-9c-.111-.617-.444-1.117-1-1.5a8616.352 8616.352 0 0 0-13-3.5 14.696 14.696 0 0 0-3-3.5c.228-.399.562-.565 1-.5Z"/><path style="opacity:.996" fill="#5990c9" d="M179.5 78.5c-.453.958-1.119 1.792-2 2.5l6 1.5c.76-.989 1.927-1.655 3.5-2 1.376.184 2.209.85 2.5 2-3.553 3.126-7.553 5.793-12 8 .086-.996-.248-1.83-1-2.5-1.941-.304-3.607-1.137-5-2.5a5.577 5.577 0 0 1-3 1c2.797-3.788 6.463-6.454 11-8Z"/><path style="opacity:.122" fill="#c7d4dc" d="M179.5 75.5c2.598 1.028 2.598 2.028 0 3-4.537 1.546-8.203 4.212-11 8a42.584 42.584 0 0 0-5 1.5 40.248 40.248 0 0 0-9 8.5 4380.808 4380.808 0 0 0-12 9c.616-1.298.616-2.298 0-3 8.603-9.095 18.937-16.928 31-23.5l-1-1a31.774 31.774 0 0 1 7-2.5Z"/><path style="opacity:.996" fill="#568fca" d="M177.5 90.5c-4.026 2.705-7.692 5.705-11 9a36.602 36.602 0 0 0-7 4v-4c-1.175.219-2.175-.114-3-1 1.504-3.006.837-3.672-2-2a40.248 40.248 0 0 1 9-8.5 42.584 42.584 0 0 1 5-1.5 5.577 5.577 0 0 0 3-1c1.393 1.363 3.059 2.196 5 2.5.752.67 1.086 1.504 1 2.5Z"/><path style="opacity:.994" fill="#588eca" d="M368.5 84.5a58.52 58.52 0 0 1 10 8 14.102 14.102 0 0 0 1 3.5c-2.523 1.911-2.523 3.745 0 5.5-.825.886-1.825 1.219-3 1a35.238 35.238 0 0 1-8-6c1.739.934 3.405.934 5 0a115.327 115.327 0 0 1-10-8c1.853-1.26 3.686-1.26 5.5 0 .195-1.32.028-2.653-.5-4Z"/><path style="opacity:.996" fill="#568fca" d="M378.5 92.5a18.665 18.665 0 0 0 5 3c5.3 4.634 10.3 9.634 15 15-1.811 1.322-3.811 1.822-6 1.5a41.03 41.03 0 0 0 0-5.5l-2 4c-4.411-4.295-5.411-3.961-3 1-4.54-1.868-8.207-4.868-11-9 1.175.219 2.175-.114 3-1-2.523-1.755-2.523-3.589 0-5.5a14.102 14.102 0 0 1-1-3.5Z"/><path style="opacity:.125" fill="#c2ccd9" d="M360.5 79.5c1.535.854 2.868.854 4 0 12.032 5.776 22.532 14.443 31.5 26l1-1c4.816 4.632 8.982 9.632 12.5 15a11.743 11.743 0 0 1-5-3 25.658 25.658 0 0 0-6-6c-4.7-5.366-9.7-10.366-15-15a18.665 18.665 0 0 1-5-3 58.52 58.52 0 0 0-10-8 728.436 728.436 0 0 1-8-5Z"/><path style="opacity:.996" fill="#5990cc" d="M159.5 103.5a229.507 229.507 0 0 1-18 18 982.03 982.03 0 0 0-7-6 57.487 57.487 0 0 1 8-10c4.018-3.024 8.018-6.024 12-9 2.837-1.672 3.504-1.006 2 2 .825.886 1.825 1.219 3 1v4Z"/><path style="opacity:.145" fill="#bac9d5" d="M166.5 99.5c-.734 1.208-1.067 2.541-1 4a159.865 159.865 0 0 0-26 26c-.333-1-1-1.667-2-2a17.902 17.902 0 0 1 4-6 229.507 229.507 0 0 0 18-18 36.602 36.602 0 0 1 7-4Z"/><path style="opacity:.098" fill="#bdc7cf" d="M142.5 102.5c.616.702.616 1.702 0 3a57.487 57.487 0 0 0-8 10 71.118 71.118 0 0 0-9 11c-.958.453-1.792 1.119-2.5 2l-4 8c-.671.752-1.504 1.086-2.5 1 0-.667-.333-1-1-1 7.117-12.789 16.117-24.122 27-34Z"/><path style="opacity:.992" fill="#5890cb" d="M134.5 115.5a982.03 982.03 0 0 1 7 6 17.902 17.902 0 0 0-4 6l-2 1c-1.476-2.178-3.309-4.178-5.5-6a25.14 25.14 0 0 1-4.5 4 71.118 71.118 0 0 1 9-11Z"/><path style="opacity:.975" fill="#568ecc" d="M398.5 110.5a25.658 25.658 0 0 1 6 6c2.656 3.971 5.323 7.971 8 12 .086.996-.248 1.829-1 2.5-4.436-1.137-5.103.196-2 4 1.049.492 2.049.326 3-.5a4.457 4.457 0 0 1 2 1.5c-1.359 1.204-2.359 2.704-3 4.5a43.836 43.836 0 0 0-2-1 49.668 49.668 0 0 0-10-13l-12-15c-2.411-4.961-1.411-5.295 3-1l2-4a41.03 41.03 0 0 1 0 5.5c2.189.322 4.189-.178 6-1.5Z"/><path style="opacity:.165" fill="#bcd0de" d="M399.5 126.5a49.668 49.668 0 0 1 10 13 93.484 93.484 0 0 1 12 19c2.66 6.608 5.327 13.274 8 20-.134 1.792.199 3.458 1 5 .268 1.599-.066 2.932-1 4-1.625-1.367-2.459-4.367-2.5-9l-1 3c-.535-5.592-1.869-10.925-4-16l-1 2c-.545-4.302-1.878-8.302-4-12l-1 1-1-4-1 1c-.684-1.284-.517-2.451.5-3.5a23.257 23.257 0 0 1-6-6.5c-3.054-5.235-6.054-9.902-9-14v-3Z"/><path style="opacity:.102" fill="#b7c9d6" d="M404.5 116.5a11.743 11.743 0 0 0 5 3c6.902 7.431 12.735 15.764 17.5 25l1-1c3.898 8.152 7.565 17.152 11 27l1-2a16.597 16.597 0 0 1-.5 7 216.21 216.21 0 0 1-7-15c.073-1.527-.594-2.527-2-3a203.918 203.918 0 0 1-3.5-9 56.81 56.81 0 0 1-9-15c-1.379-2.215-3.213-3.881-5.5-5a4716.653 4716.653 0 0 0-8-12Z"/><path style="opacity:.996" fill="#578ecb" d="M135.5 128.5a4438.298 4438.298 0 0 0-9.5 13c-2.48 6.965-5.98 13.298-10.5 19-.897 1.098-1.73 1.098-2.5 0-.684 1.284-.517 2.451.5 3.5a11.38 11.38 0 0 1-2 2.5l-1-1c-.625-4.582-.625-9.249 0-14a8.43 8.43 0 0 1 .5-4 73.609 73.609 0 0 0 5.5-10c.996.086 1.829-.248 2.5-1l4-8c.708-.881 1.542-1.547 2.5-2a25.14 25.14 0 0 0 4.5-4c2.191 1.822 4.024 3.822 5.5 6Z"/><path style="opacity:.995" fill="#578fcc" d="M412.5 128.5c2.287 1.119 4.121 2.785 5.5 5a56.81 56.81 0 0 0 9 15 203.918 203.918 0 0 0 3.5 9 53.622 53.622 0 0 1-6.5-8 31.568 31.568 0 0 1-2.5 9 93.484 93.484 0 0 0-12-19c.65.304 1.317.637 2 1 .641-1.796 1.641-3.296 3-4.5a4.457 4.457 0 0 0-2-1.5c-.951.826-1.951.992-3 .5-3.103-3.804-2.436-5.137 2-4 .752-.671 1.086-1.504 1-2.5Z"/><path style="opacity:.004" fill="#fefffe" d="M104.5 155.5c-.667-1.333-.667-1.333 0 0Z"/><path style="opacity:.996" fill="#558dcd" d="M430.5 157.5c1.406.473 2.073 1.473 2 3-.038 2.681.629 5.181 2 7.5l-2.5 13.5a81.316 81.316 0 0 0-2.5-3 4870.721 4870.721 0 0 0-8-20 31.568 31.568 0 0 0 2.5-9 53.622 53.622 0 0 0 6.5 8Z"/><path style="opacity:.082" fill="#c5d4e0" d="M115.5 136.5c.667 0 1 .333 1 1a73.609 73.609 0 0 1-5.5 10 8.43 8.43 0 0 0-.5 4c-4.197 5.6-7.197 11.934-9 19h-1v-4a12.93 12.93 0 0 1 .5-5l1 1c.182-3.322 1.016-5.656 2.5-7 2.117-3.923 4.284-8.59 6.5-14l1 1c.421-2.52 1.588-4.52 3.5-6Z"/><path style="opacity:.153" fill="#c2d5e3" d="M227.5 187.5c.584 2.785-.416 4.452-3 5 .912-1.238 1.079-2.572.5-4-2.416-2.923-5.25-5.257-8.5-7 1.709-4.912 4.542-9.246 8.5-13 .269-2.78-.898-4.946-3.5-6.5-4.815.291-8.148 2.791-10 7.5-1.251 2.061-2.918 2.394-5 1-2.738-3.742-6.072-6.742-10-9-2.628.965-4.628 2.632-6 5-.617-.111-1.117-.444-1.5-1-.278.916-.778 1.582-1.5 2 1.31-4.475 4.143-7.475 8.5-9a19.603 19.603 0 0 1 6.5 2.5l-1 1a73.25 73.25 0 0 1 6.5 5.5 32.348 32.348 0 0 0 8.5-8c2.333-1.333 4.667-1.333 7 0a30.335 30.335 0 0 1 5 7.5 11.25 11.25 0 0 1-1 3.5c-2.914 2.408-5.247 5.242-7 8.5a28.933 28.933 0 0 0 7 8.5Z"/><path style="opacity:.016" fill="#c0cfd9" d="M137.5 127.5c1 .333 1.667 1 2 2a2714.508 2714.508 0 0 1-10 12c-2.326 3.922-4.492 8.589-6.5 14l-1-2a53.374 53.374 0 0 0-4 12l-1-2-1 5-1-1c-1.337 5.338-2.67 10.671-4 16l-1-3a157.43 157.43 0 0 0-4 24l-1-5a40.914 40.914 0 0 0-.5 9c-1.248-.834-1.915-2.167-2-4 .466-2.992.799-5.992 1-9a162.995 162.995 0 0 1 7-24c2.616-3.16 4.283-6.826 5-11 4.52-5.702 8.02-12.035 10.5-19 3.176-4.363 6.343-8.696 9.5-13l2-1Z"/><path style="opacity:.027" fill="#c2d4e0" d="M318.5 159.5a8.43 8.43 0 0 1 4 .5c-.916.278-1.582.778-2 1.5-2 1.333-3.667 3-5 5a32.924 32.924 0 0 1-5.5 4 11.803 11.803 0 0 1-3.5-2c-2.073-3.238-4.906-5.571-8.5-7-1.171.84-2.338 1.673-3.5 2.5-1.711 1.133-2.211 2.633-1.5 4.5a54.53 54.53 0 0 0 6.5 6c1.409 1.805 1.909 3.805 1.5 6l-4.5 4.5c-.937.692-1.603.525-2-.5a29.771 29.771 0 0 1 4-5.5l-8.5-9.5-.5-2.5a21.746 21.746 0 0 1 4.5-6.5c2.218-2.119 4.718-2.452 7.5-1l8 8a110.768 110.768 0 0 1 9-8Z"/><path style="opacity:.988" fill="#598fcb" d="M306.5 168.5c-.086.996.248 1.829 1 2.5-2.988.502-5.655 1.669-8 3.5a54.53 54.53 0 0 1-6.5-6c-.711-1.867-.211-3.367 1.5-4.5 1.162-.827 2.329-1.66 3.5-2.5 3.594 1.429 6.427 3.762 8.5 7Z"/><path style="opacity:.996" fill="#5a91cb" d="M110.5 151.5c-.625 4.751-.625 9.418 0 14l1 1a11.38 11.38 0 0 0 2-2.5c-1.017-1.049-1.184-2.216-.5-3.5.77 1.098 1.603 1.098 2.5 0-.717 4.174-2.384 7.84-5 11a8.43 8.43 0 0 0-.5-4 26.091 26.091 0 0 1-3.5 5l-2-5c-.788 1.27-1.788 2.27-3 3 1.803-7.066 4.803-13.4 9-19Z"/><path style="opacity:.996" fill="#578fcb" d="M211.5 169.5c1.073.751 1.24 1.751.5 3a24.006 24.006 0 0 0-3.5 5c-.978.311-1.645.978-2 2 2.326.89 4.659 1.057 7 .5-2.003 1.819-3.336 3.985-4 6.5-2.014-.108-3.68.558-5 2 .126-1.7.793-3.2 2-4.5a14.766 14.766 0 0 0-3-5.5c1.09-1.109 1.09-2.109 0-3a4.457 4.457 0 0 0-1.5 2c.218 2.087.051 4.087-.5 6-.765-1.112-1.765-1.779-3-2 1.241-4.187-.259-7.187-4.5-9-.627-2.427-1.794-4.427-3.5-6 1.372-2.368 3.372-4.035 6-5 3.928 2.258 7.262 5.258 10 9 2.082 1.394 3.749 1.061 5-1Z"/><path style="opacity:.994" fill="#568fca" d="M320.5 161.5c3.327.486 5.661 2.32 7 5.5a70.352 70.352 0 0 1-9.5 10.5 4.934 4.934 0 0 0-.5 3 24.437 24.437 0 0 0-6-8 17.902 17.902 0 0 0 4-6c1.333-2 3-3.667 5-5Z"/><path style="opacity:.216" fill="#c2d2e2" d="M190.5 166.5c1.706 1.573 2.873 3.573 3.5 6 4.241 1.813 5.741 4.813 4.5 9a73.503 73.503 0 0 0-7.5 7c-.015 4.008 1.985 6.674 6 8 3.289-1.901 5.789-4.568 7.5-8 1.32-1.442 2.986-2.108 5-2 2.857 4.725 6.857 7.559 12 8.5a10.515 10.515 0 0 1 3-2.5c2.584-.548 3.584-2.215 3-5 1.122 1.788 1.289 3.788.5 6-3.333 2-6 4.667-8 8l-12-11a66.101 66.101 0 0 0-8.5 8c-1.667 1.333-3.333 1.333-5 0a21.53 21.53 0 0 0-6-5 13.116 13.116 0 0 1-1-7c3.696-1.517 6.696-4.017 9-7.5-3.626-3.446-6.626-7.279-9-11.5.722-.418 1.222-1.084 1.5-2 .383.556.883.889 1.5 1Z"/><path style="opacity:.231" fill="#b5c4d2" d="M308.5 190.5c1.419-.951 3.085-1.284 5-1a25.076 25.076 0 0 0 7.5 7c3.699-1.661 5.699-4.327 6-8-2.766-3.277-5.933-5.943-9.5-8a4.934 4.934 0 0 1 .5-3 70.352 70.352 0 0 0 9.5-10.5c-1.339-3.18-3.673-5.014-7-5.5.418-.722 1.084-1.222 2-1.5a8.43 8.43 0 0 0-4-.5c1.529-1.136 3.862-1.302 7-.5l-1 1c3.416 1.449 5.749 3.949 7 7.5-3.03 3.691-6.03 7.358-9 11 3.641 3.989 6.641 7.989 9 12-1.047 1.556-1.714 3.223-2 5a16.534 16.534 0 0 0-7.5 4 99.404 99.404 0 0 1-8.5-4c-.333-3-2-4.667-5-5Z"/><path style="opacity:.996" fill="#5690c8" d="M216.5 181.5c-.597.235-.93.735-1 1.5a25.936 25.936 0 0 1 4 4.5c-.82 1.611-2.154 2.278-4 2v-4c-1.175.219-2.175-.114-3-1l4-9-2-1c-1.548 1.876-3.548 2.876-6 3a24.006 24.006 0 0 1 3.5-5c.74-1.249.573-2.249-.5-3 1.852-4.709 5.185-7.209 10-7.5 2.602 1.554 3.769 3.72 3.5 6.5-3.958 3.754-6.791 8.088-8.5 13Z"/><path style="opacity:.975" fill="#5a91ca" d="M432.5 160.5a216.21 216.21 0 0 0 7 15 51.569 51.569 0 0 0 1 7c-.722-.418-1.222-1.084-1.5-2l-1 9c-1.894-3.517-1.728-7.017.5-10.5-.667-.667-1.333-.667-2 0a30.109 30.109 0 0 0-3 8.5l-3-4c-.801-1.542-1.134-3.208-1-5a81.316 81.316 0 0 1 2.5 3l2.5-13.5c-1.371-2.319-2.038-4.819-2-7.5Z"/><path style="opacity:.996" fill="#578fcc" d="M110.5 171.5a162.995 162.995 0 0 0-7 24c.077-3.009-1.256-5.176-4-6.5l1-1c-.359-2.63-1.36-4.797-3-6.5a71.48 71.48 0 0 1 3-11h1c1.212-.73 2.212-1.73 3-3l2 5a26.091 26.091 0 0 0 3.5-5 8.43 8.43 0 0 1 .5 4Z"/><path style="opacity:.996" fill="#5b91c9" d="M315.5 166.5a17.902 17.902 0 0 1-4 6c-2.504 1.139-5.17 1.806-8 2v3a12.992 12.992 0 0 1 5.5 1c1.837-2.301 3.503-1.968 5 1 .667 1.333.667 2.667 0 4-1.11-1.537-2.61-2.203-4.5-2v3h3v3c-1.238-.912-2.572-1.079-4-.5a70.845 70.845 0 0 1-10.5 9.5c-3.81-2.303-6.644-5.303-8.5-9a31.106 31.106 0 0 1 5-3c.397 1.025 1.063 1.192 2 .5l4.5-4.5c.409-2.195-.091-4.195-1.5-6 2.345-1.831 5.012-2.998 8-3.5-.752-.671-1.086-1.504-1-2.5a11.803 11.803 0 0 0 3.5 2 32.924 32.924 0 0 0 5.5-4Z"/><path style="opacity:.996" fill="#568ece" d="M311.5 172.5a24.437 24.437 0 0 1 6 8c3.567 2.057 6.734 4.723 9.5 8-.301 3.673-2.301 6.339-6 8a25.076 25.076 0 0 1-7.5-7l-1-2v-3h-3v-3c1.89-.203 3.39.463 4.5 2 .667-1.333.667-2.667 0-4-1.497-2.968-3.163-3.301-5-1a12.992 12.992 0 0 0-5.5-1v-3c2.83-.194 5.496-.861 8-2Z"/><path style="opacity:.996" fill="#588fcd" d="M204.5 188.5c-1.711 3.432-4.211 6.099-7.5 8-4.015-1.326-6.015-3.992-6-8a73.503 73.503 0 0 1 7.5-7c1.235.221 2.235.888 3 2 .551-1.913.718-3.913.5-6a4.457 4.457 0 0 1 1.5-2c1.09.891 1.09 1.891 0 3a14.766 14.766 0 0 1 3 5.5c-1.207 1.3-1.874 2.8-2 4.5Z"/><path style="opacity:.082" fill="#cadce3" d="M100.5 166.5v4a71.48 71.48 0 0 0-3 11c-2.455 5.71-4.122 11.71-5 18a206.891 206.891 0 0 1-4 16c-.166-5.676 0-11.343.5-17l1 4 1-10 1 1c.563-2.366.396-4.699-.5-7 .237-2.563.737-2.563 1.5 0a161.925 161.925 0 0 0 3-13l1 2 2-10c.383.556.883.889 1.5 1Z"/><path style="opacity:.996" fill="#558dcc" d="M216.5 181.5c3.25 1.743 6.084 4.077 8.5 7 .579 1.428.412 2.762-.5 4a10.515 10.515 0 0 0-3 2.5c-5.143-.941-9.143-3.775-12-8.5.664-2.515 1.997-4.681 4-6.5-2.341.557-4.674.39-7-.5.355-1.022 1.022-1.689 2-2 2.452-.124 4.452-1.124 6-3l2 1-4 9c.825.886 1.825 1.219 3 1v4c1.846.278 3.18-.389 4-2a25.936 25.936 0 0 0-4-4.5c.07-.765.403-1.265 1-1.5Z"/><path style="opacity:.996" fill="#518ccd" d="M440.5 182.5v2a45.966 45.966 0 0 1 0 17 3.647 3.647 0 0 0-1.5 1c.362-5.456-1.472-9.789-5.5-13v-2a30.109 30.109 0 0 1 3-8.5c.667-.667 1.333-.667 2 0-2.228 3.483-2.394 6.983-.5 10.5l1-9c.278.916.778 1.582 1.5 2Z"/><path style="opacity:.992" fill="#5c91cd" d="M97.5 181.5c1.64 1.703 2.641 3.87 3 6.5l-1 1c2.744 1.324 4.077 3.491 4 6.5a103.137 103.137 0 0 1-1 9c.085 1.833.752 3.166 2 4a8.43 8.43 0 0 1-.5 4c-.232-1.237-.732-2.237-1.5-3a78.928 78.928 0 0 0-4 20 992.145 992.145 0 0 0-2-30 20.211 20.211 0 0 0-1.5 6c-.417-1.256-1.25-1.923-2.5-2v-4c.878-6.29 2.545-12.29 5-18Z"/><path style="opacity:.102" fill="#bccbd4" d="m312.5 187.5 1 2c-1.915-.284-3.581.049-5 1-2.39 4.057-5.724 7.057-10 9-2.904-1.555-5.57-3.555-8-6a9.86 9.86 0 0 1-1-6c1.856 3.697 4.69 6.697 8.5 9a70.845 70.845 0 0 0 10.5-9.5c1.428-.579 2.762-.412 4 .5Z"/><path style="opacity:.016" fill="#b4c8dd" d="m430.5 183.5 3 4v2a279.42 279.42 0 0 1 6 48c-.992-.172-1.658.162-2 1-.767-.672-1.434-1.505-2-2.5.823-3.028 1.157-6.194 1-9.5a109.077 109.077 0 0 1-2.5-22l-1 7a114.372 114.372 0 0 0-3.5-24c.934-1.068 1.268-2.401 1-4Z"/><path style="opacity:.996" fill="#568fca" d="M440.5 184.5a51.22 51.22 0 0 0 2.5 4 220.986 220.986 0 0 1 4.5 36c-.814-2.131-1.314-4.464-1.5-7l-1 4a300.615 300.615 0 0 1-2.5-10c-1.345.847-2.345 2.013-3 3.5a319.664 319.664 0 0 0 6 16 32.298 32.298 0 0 1-5 4.5c2.218.557 4.551.557 7 0v-4c1.667 1 3 2.333 4 4a205 205 0 0 0-8 5 308.607 308.607 0 0 1-4-3 279.42 279.42 0 0 0-6-48c4.028 3.211 5.862 7.544 5.5 13a3.647 3.647 0 0 1 1.5-1 45.966 45.966 0 0 0 0-17Z"/><path style="opacity:.427" fill="#bfd1e1" d="M499.5 279.5a4.934 4.934 0 0 1-3-.5 1006.663 1006.663 0 0 0-27-26.5 84.04 84.04 0 0 1-9-9c-2.427-3.369-5.427-6.036-9-8-1-1.667-2.333-3-4-4v-7a220.986 220.986 0 0 0-4.5-36 51.22 51.22 0 0 1-2.5-4v-2a51.569 51.569 0 0 1-1-7c.722-.418 1.222-1.084 1.5-2 1.878 3.389 2.878 7.723 3 13l1-3 2 18 1-5c1.855 10.482 2.855 21.816 3 34l1-6c.27 2.724.77 5.391 1.5 8 15.646 14.67 30.979 30.336 46 47Z"/><path style="opacity:.996" fill="#518bcb" d="M98.5 229.5c.661 4.668-1.339 7.335-6 8-3.573-.477-4.406-2.144-2.5-5 .889-9.669 1.722-19.335 2.5-29 1.25.077 2.083.744 2.5 2a20.211 20.211 0 0 1 1.5-6 992.145 992.145 0 0 1 2 30Z"/><path style="opacity:.995" fill="#528dcd" d="M447.5 224.5v11c-2.449.557-4.782.557-7 0a32.298 32.298 0 0 0 5-4.5 319.664 319.664 0 0 1-6-16c.655-1.487 1.655-2.653 3-3.5a300.615 300.615 0 0 0 2.5 10l1-4c.186 2.536.686 4.869 1.5 7Z"/><path style="opacity:.554" fill="#aec2dd" d="M267.5 224.5a2.428 2.428 0 0 0-2 .5c2.879.546 5.546 1.379 8 2.5a131.548 131.548 0 0 0-30 0c2.24-.764 4.573-1.598 7-2.5a2.428 2.428 0 0 0-2-.5c-.418-.722-1.084-1.222-2-1.5a156.422 156.422 0 0 1 25 0c-1.558.21-2.891.71-4 1.5Z"/><path style="opacity:.133" fill="#bacddd" d="M267.5 224.5a72.367 72.367 0 0 1 12 .5l-2 1 12 3-3 1c11.449 3.367 19.615 10.534 24.5 21.5l1-1 2 10 1-1a12.494 12.494 0 0 1 0 7l-1-1c-.869 2.883-2.869 4.216-6 4-3.239.167-5.406-1.167-6.5-4 .992.172 1.658-.162 2-1 1.8 3.481 4.133 3.814 7 1 1.166-4.027.999-8.027-.5-12-5.201-9.709-12.701-16.709-22.5-21a141.205 141.205 0 0 0-14-5c-2.454-1.121-5.121-1.954-8-2.5a2.428 2.428 0 0 1 2-.5Z"/><path style="opacity:.996" fill="#518bcd" d="M242.5 231.5c-1.699.12-3.365.454-5 1-1.213-.247-1.88-.914-2-2a417.455 417.455 0 0 1 17.5-2c6.421.265 12.921.432 19.5.5l1 1c-2.832 1.294-5.665 1.461-8.5.5a40.397 40.397 0 0 1-8 3c-3.013-.545-3.179-1.711-.5-3.5-2.402-.678-4.568-.178-6.5 1.5-2.547-1.285-5.047-1.285-7.5 0Z"/><path style="opacity:.961" fill="#568fca" d="M273.5 227.5a141.205 141.205 0 0 1 14 5c-3.087-.043-6.087-.21-9-.5a7.293 7.293 0 0 0 3 2h-12c2.474.037 4.474.87 6 2.5a104.618 104.618 0 0 0-9-1c-5.475-.989-11.142-1.322-17-1-2.659-.417-4.992-1.417-7-3 2.453-1.285 4.953-1.285 7.5 0 1.932-1.678 4.098-2.178 6.5-1.5-2.679 1.789-2.513 2.955.5 3.5a40.397 40.397 0 0 0 8-3c2.835.961 5.668.794 8.5-.5l-1-1a631.074 631.074 0 0 1-19.5-.5 417.455 417.455 0 0 0-17.5 2c2.184-2.085 4.851-3.085 8-3a131.548 131.548 0 0 1 30 0Z"/><path style="opacity:.263" fill="#c1d2de" d="M87.5 216.5c-.107 1.879.393 2.212 1.5 1a84.94 84.94 0 0 1 .5 13 8.43 8.43 0 0 0-4 .5c-3.607 3.098-6.607 6.598-9 10.5a120.004 120.004 0 0 0-5 4v-4c.558-1.29 1.558-2.123 3-2.5l-1-1c4.124-3.567 8.458-6.9 13-10l-1-1a128.947 128.947 0 0 0 1.5-15.5c.493 1.634.66 3.301.5 5Z"/><path style="opacity:.996" fill="#558dcb" d="M235.5 230.5c.12 1.086.787 1.753 2 2a20.222 20.222 0 0 1 5-1c2.008 1.583 4.341 2.583 7 3-7.646 1.102-14.646 3.769-21 8-.798.457-1.131 1.124-1 2-4.193.138-6.527-1.862-7-6 4.059-4.383 9.059-7.05 15-8Z"/><path style="opacity:.996" fill="#6497cc" d="M92.5 199.5v4a2552.483 2552.483 0 0 1-2.5 29c-1.906 2.856-1.073 4.523 2.5 5-1.333 2-3 3.667-5 5-1.818.306-3.818.306-6 0a612.617 612.617 0 0 1 3-3.5c-.114-1.28-.78-2.113-2-2.5-1.474.936-2.474 2.27-3 4-.825.886-1.825 1.219-3 1 2.393-3.902 5.393-7.402 9-10.5a8.43 8.43 0 0 1 4-.5 84.94 84.94 0 0 0-.5-13c-1.107 1.212-1.607.879-1.5-1 .667 0 1-.333 1-1a206.891 206.891 0 0 0 4-16Z"/><path style="opacity:.996" fill="#578fcc" d="M287.5 232.5c9.799 4.291 17.299 11.291 22.5 21 1.499 3.973 1.666 7.973.5 12-2.867 2.814-5.2 2.481-7-1a70.523 70.523 0 0 0-1.5-9c-7.296-8.708-16.129-15.042-26.5-19-1.526-1.63-3.526-2.463-6-2.5h12a7.293 7.293 0 0 1-3-2c2.913.29 5.913.457 9 .5Z"/><path style="opacity:.278" fill="#b5c5d6" d="M102.5 209.5c.166 8.673 0 17.34-.5 26-2.011 2.363-4.511 4.196-7.5 5.5a40.555 40.555 0 0 1-10 8.5h-3l6-7c2-1.333 3.667-3 5-5 4.661-.665 6.661-3.332 6-8a78.928 78.928 0 0 1 4-20Z"/><path style="opacity:.153" fill="#b8cbe2" d="M249.5 234.5c5.858-.322 11.525.011 17 1-4.863-.319-9.53.014-14 1-7.032 1.786-14.366 4.286-22 7.5l1 1c-1.633.48-2.966 1.313-4 2.5v-3c-.131-.876.202-1.543 1-2 6.354-4.231 13.354-6.898 21-8Z"/><path style="opacity:.996" fill="#558dca" d="M451.5 235.5c3.573 1.964 6.573 4.631 9 8a5.576 5.576 0 0 1-1 3 21.83 21.83 0 0 1 5 6 30.495 30.495 0 0 0-7 1c-4.641-4.305-9.307-8.639-14-13a205 205 0 0 1 8-5Z"/><path style="opacity:.063" fill="#c8d7e6" d="M252.5 236.5c4.47-.986 9.137-1.319 14-1 3.018.204 6.018.537 9 1 10.371 3.958 19.204 10.292 26.5 19a70.523 70.523 0 0 1 1.5 9c-.342.838-1.008 1.172-2 1-2.328-12.527-11.328-21.36-27-26.5l-13-1 4-1a84.902 84.902 0 0 0-13-.5Z"/><path style="opacity:.987" fill="#538dcc" d="m87.5 242.5-6 7c-2.321-.271-4.321.396-6 2a3.647 3.647 0 0 1-1.5-1 93.371 93.371 0 0 1 2.5-9c1.175.219 2.175-.114 3-1 .526-1.73 1.526-3.064 3-4 1.22.387 1.886 1.22 2 2.5a612.617 612.617 0 0 0-3 3.5c2.182.306 4.182.306 6 0Z"/><path style="opacity:.131" fill="#bcd4e2" d="M439.5 237.5c1.295.988 2.628 1.988 4 3 4.693 4.361 9.359 8.695 14 13a66.515 66.515 0 0 1 6 7.5c-.544.717-1.211 1.217-2 1.5a2363.023 2363.023 0 0 1-15.5-17l-1 1a4.934 4.934 0 0 1-.5-3c-2.882-.879-5.215-2.546-7-5 .342-.838 1.008-1.172 2-1Z"/><path style="opacity:.055" fill="#c2cfe0" d="M248.5 224.5a2.428 2.428 0 0 1 2 .5c-2.427.902-4.76 1.736-7 2.5-3.149-.085-5.816.915-8 3-5.941.95-10.941 3.617-15 8-9.451 6.521-14.285 15.521-14.5 27 1.884 2.076 4.051 2.41 6.5 1a63.756 63.756 0 0 0 4.5-13 27.393 27.393 0 0 1 7.5-7c.886.825 1.219 1.825 1 3-1.879-.107-2.212.393-1 1.5-2.608 1.378-4.108 3.545-4.5 6.5l-1-2-1 5c-.889-1.388-1.389-1.222-1.5.5.83 1.465.996 2.965.5 4.5l-1-1c-.821 3.512-2.988 5.845-6.5 7-1.196-.346-1.196-.846 0-1.5-5.169-.17-7.502-2.836-7-8 1.183-2.464 2.016-5.964 2.5-10.5l1 2a39.201 39.201 0 0 1 4-10l1 1c4.414-6.635 10.914-11.468 19.5-14.5l-2-1 7-1-1-1 6-1-2-1a50.464 50.464 0 0 1 10-.5Z"/><path style="opacity:.981" fill="#5a90cc" d="M220.5 238.5c.473 4.138 2.807 6.138 7 6v3l-2 2c.219-1.175-.114-2.175-1-3a27.393 27.393 0 0 0-7.5 7 63.756 63.756 0 0 1-4.5 13c-2.449 1.41-4.616 1.076-6.5-1 .215-11.479 5.049-20.479 14.5-27Z"/><path style="opacity:.995" fill="#5d8fcb" d="M460.5 243.5a84.04 84.04 0 0 0 9 9c-.203 1.544-.87 2.878-2 4 .457.798 1.124 1.131 2 1 1.604.787 2.271 2.12 2 4a20.69 20.69 0 0 0-5 1c-.667 0-1 .333-1 1-.667 0-1 .333-1 1-1.21-.432-2.21-1.099-3-2 .789-.283 1.456-.783 2-1.5a66.515 66.515 0 0 0-6-7.5 30.495 30.495 0 0 1 7-1 21.83 21.83 0 0 0-5-6 5.576 5.576 0 0 0 1-3Z"/><path style="opacity:.11" fill="#c0d3df" d="M71.5 241.5v4a407.75 407.75 0 0 0-24 24 210.386 210.386 0 0 0-12.5 12c-.399-.228-.565-.562-.5-1a5.577 5.577 0 0 1 1-3c11.99-11.998 23.99-23.998 36-36Z"/><path style="opacity:.992" fill="#5b90c8" d="M76.5 241.5a93.371 93.371 0 0 0-2.5 9c.414.457.914.791 1.5 1 1.679-1.604 3.679-2.271 6-2h3c0 1.333-.667 2-2 2-.75-1.073-1.75-1.24-3-.5L64 266.5c-.47 1.077-.303 2.077.5 3 0 1.333-.667 2-2 2 .172-.992-.162-1.658-1-2-1.684-2.716-2.85-5.716-3.5-9-3.098 3.607-6.598 6.607-10.5 9a407.75 407.75 0 0 1 24-24c1.68-1.416 3.346-2.75 5-4Z"/><path style="opacity:.192" fill="#c0cce2" d="M82.5 251.5c-.257 2.276-1.59 3.443-4 3.5l1 1c-5.583 4.796-10.583 9.296-15 13.5-.803-.923-.97-1.923-.5-3L79.5 251c1.25-.74 2.25-.573 3 .5Z"/><path style="opacity:.157" fill="#b6c9df" d="M466.5 262.5a972.55 972.55 0 0 0 14 14c3.333 4 7 7.667 11 11a124.892 124.892 0 0 0 7.5 12c.667 1.667.667 3.333 0 5-.383-.556-.883-.889-1.5-1 .043-4.393-.457-4.726-1.5-1-1.21-7.897-5.377-13.73-12.5-17.5-6.573-7.394-12.906-14.227-19-20.5.667 0 1-.333 1-1s.333-1 1-1Z"/><path style="opacity:.996" fill="#588eca" d="m61.5 269.5-14 13v-3c-3.191.262-5.858 1.595-8 4a4.451 4.451 0 0 1-1.5-2 108.553 108.553 0 0 1-3.5 9.5l-1 .5c-.718-2.558-2.05-3.225-4-2 .433-2.695 1.766-4.862 4-6.5-.556-.383-.89-.883-1-1.5-.133-3.425.533-3.758 2-1-.065.438.101.772.5 1a210.386 210.386 0 0 1 12.5-12c3.902-2.393 7.402-5.393 10.5-9 .65 3.284 1.816 6.284 3.5 9Z"/><path style="opacity:.995" fill="#558ccb" d="M469.5 257.5c1.349-1.297 2.682-1.13 4 .5-1.284 1.297-1.117 2.464.5 3.5l1-1a10.098 10.098 0 0 1 1.5 6 6.846 6.846 0 0 0 4-1c1.611.82 2.278 2.154 2 4h3c-.396 2.544.271 4.711 2 6.5-.498 1.158-1.331 1.991-2.5 2.5-1.3-1.207-2.8-1.874-4.5-2a972.55 972.55 0 0 1-14-14 20.69 20.69 0 0 1 5-1c.271-1.88-.396-3.213-2-4Z"/><path style="opacity:.995" fill="#5c91ca" d="M469.5 252.5a1006.663 1006.663 0 0 1 27 26.5 4.934 4.934 0 0 0 3 .5c1.333 0 2 .667 2 2-1.125.848-1.125 1.848 0 3a8.43 8.43 0 0 1-4-.5 3.647 3.647 0 0 0 1-1.5c-2.197-1.806-4.53-2.139-7-1 3.152 1.474 3.152 3.474 0 6-4-3.333-7.667-7-11-11 1.7.126 3.2.793 4.5 2 1.169-.509 2.002-1.342 2.5-2.5-1.729-1.789-2.396-3.956-2-6.5h-3c.278-1.846-.389-3.18-2-4a6.846 6.846 0 0 1-4 1 10.098 10.098 0 0 0-1.5-6l-1 1c-1.617-1.036-1.784-2.203-.5-3.5-1.318-1.63-2.651-1.797-4-.5-.876.131-1.543-.202-2-1 1.13-1.122 1.797-2.456 2-4Z"/><path style="opacity:.996" fill="#568dcc" d="M501.5 284.5c1.189 2.125.855 4.125-1 6 2.301 3.714 4.134 7.714 5.5 12 .276-3.83 1.442-4.496 3.5-2a73.133 73.133 0 0 1-1 17c-1.524-1.983-2.524-4.316-3-7a7.248 7.248 0 0 0-2.5 2c-.186-2.536-.686-4.869-1.5-7a4.934 4.934 0 0 0-3 .5c1.238.69 1.238 1.19 0 1.5-.934-1.068-1.268-2.401-1-4 .617.111 1.117.444 1.5 1 .667-1.667.667-3.333 0-5a124.892 124.892 0 0 1-7.5-12c3.152-2.526 3.152-4.526 0-6 2.47-1.139 4.803-.806 7 1a3.647 3.647 0 0 1-1 1.5 8.43 8.43 0 0 0 4 .5Z"/><path style="opacity:.129" fill="#c0cedc" d="m145.5 300.5-2-1c-.071-4.076-2.071-6.743-6-8a138.699 138.699 0 0 0-14 14c-1 .333-1.667 1-2 2a2.428 2.428 0 0 0-2 .5 172.622 172.622 0 0 1-10 11.5 181.118 181.118 0 0 0-16 16l-9 6-2-1c3.366-2.212 6.7-4.712 10-7.5l-1-1c13.007-12.34 25.34-24.674 37-37 6.279-7.45 12.445-7.283 18.5.5.877 2.174.377 3.841-1.5 5Z"/><path style="opacity:.955" fill="#7da3d4" d="M501.5 281.5c2.408 1.984 4.742 4.818 7 8.5a15.894 15.894 0 0 1 1 6.5v4c-2.058-2.496-3.224-1.83-3.5 2-1.366-4.286-3.199-8.286-5.5-12 1.855-1.875 2.189-3.875 1-6-1.125-1.152-1.125-2.152 0-3Z"/><path style="opacity:.235" fill="#bccfdd" d="M445.5 337.5a409.027 409.027 0 0 1-6-3h-1a163.297 163.297 0 0 0-21-22 213.033 213.033 0 0 0-21.5-21c-3.819 1.457-5.486 4.124-5 8a713.108 713.108 0 0 0 15.5 15l1 2-4-1c-6.437-6.08-12.104-12.08-17-18 .237-2.563.737-2.563 1.5 0 1.288-6.413 5.121-8.913 11.5-7.5l3.5 4.5 1-1c.483.948.649 1.948.5 3a4.934 4.934 0 0 1 3 .5l-1 1a170.284 170.284 0 0 1 20.5 20.5c6.307 4.82 12.474 11.154 18.5 19Z"/><path style="opacity:.31" fill="#b6cce2" d="M61.5 269.5c.838.342 1.172 1.008 1 2-5.93 7.107-12.763 14.107-20.5 21-.075 2.435-.908 3.102-2.5 2-2.728 3.468-4.395 7.468-5 12v2c-.982 3.462-1.315 7.129-1 11-.985-4.134-1.318-8.468-1-13 .983-4.107 2.483-8.107 4.5-12a181.254 181.254 0 0 1 10.5-12l14-13Z"/><path style="opacity:.988" fill="#5d93cc" d="M143.5 299.5c-1.641.647-2.974 1.647-4 3-.956-5.13-2.623-5.297-5-.5-1.277.127-2.443-.373-3.5-1.5a53.193 53.193 0 0 1-7.5 5c4.366-5.033 9.033-9.7 14-14 3.929 1.257 5.929 3.924 6 8Z"/><path style="opacity:.996" fill="#548dcb" d="M47.5 282.5a181.254 181.254 0 0 0-10.5 12c-2.017 3.893-3.517 7.893-4.5 12a345.324 345.324 0 0 1-3 17.5 8.43 8.43 0 0 0 4 .5c-1.14 2.504-1.806 5.17-2 8h-3c.413-2.82-.587-4.82-3-6-.79-1.109-1.29-2.442-1.5-4a132.493 132.493 0 0 1 0-23 71.88 71.88 0 0 1 5.5-10c1.95-1.225 3.282-.558 4 2l1-.5a108.553 108.553 0 0 0 3.5-9.5 4.451 4.451 0 0 0 1.5 2c2.142-2.405 4.809-3.738 8-4v3Z"/><path style="opacity:.98" fill="#578fca" d="M417.5 312.5c-1.443.835-2.443 2.168-3 4a24.98 24.98 0 0 0-7-4c-.798.457-1.131 1.124-1 2a713.108 713.108 0 0 1-15.5-15c-.486-3.876 1.181-6.543 5-8a213.033 213.033 0 0 1 21.5 21Z"/><path style="opacity:.996" fill="#548cce" d="M139.5 302.5a214.996 214.996 0 0 1-18 17c-2.049-.206-2.383-1.039-1-2.5-1.658-.725-2.158-1.892-1.5-3.5 1.183 1.231 2.349 1.231 3.5 0-2.046-1.781-2.38-3.781-1-6 .333-1 1-1.667 2-2a53.193 53.193 0 0 0 7.5-5c1.057 1.127 2.223 1.627 3.5 1.5 2.377-4.797 4.044-4.63 5 .5Z"/><path style="opacity:.004" fill="#a0ffc0" d="M514.5 309.5c1.122 1.788 1.289 3.788.5 6a18.453 18.453 0 0 1-.5-6Z"/><path style="opacity:.004" d="M134.5 313.5c2.625.966 2.625 1.966 0 3-1.062-.925-1.062-1.925 0-3Z"/><path style="opacity:.204" fill="#c8d9e5" d="M32.5 281.5c.11.617.444 1.117 1 1.5-2.234 1.638-3.567 3.805-4 6.5a71.88 71.88 0 0 0-5.5 10 132.493 132.493 0 0 0 0 23c.21 1.558.71 2.891 1.5 4 1.793 7.686 5.793 14.02 12 19 2.249.58 3.915 1.913 5 4 4.494 2.902 9.494 5.069 15 6.5a457.55 457.55 0 0 1 26 .5c-2.469.817-5.135 1.317-8 1.5l4 1c-8 .667-16 .667-24 0l3-1c-15.01-2.151-25.51-9.651-31.5-22.5l-1 1c-2.584-5.004-3.918-10.337-4-16l-1 5a169.242 169.242 0 0 1 0-26l1 4a47.091 47.091 0 0 1 4-16l1 2c.94-3.414 2.774-6.081 5.5-8Z"/><path style="opacity:.231" fill="#c2d3e4" d="M504.5 340.5c-.978-.311-1.645-.978-2-2 6.53-8.091 9.197-17.424 8-28-.002-3.518-.335-6.851-1-10v-4c.722-.418 1.222-1.084 1.5-2 3.976 14.633 3.143 28.133-2.5 40.5a40.41 40.41 0 0 1-4 5.5Z"/><path style="opacity:.983" fill="#5b92cc" d="M32.5 306.5c-.318 4.532.015 8.866 1 13 1.149 3.642 2.316 7.308 3.5 11a84.01 84.01 0 0 1 7.5 8c-2.216-.703-4.049-2.036-5.5-4a18.969 18.969 0 0 1-3.5 6.5c1.207 1.3 1.874 2.8 2 4.5-6.207-4.98-10.207-11.314-12-19 2.413 1.18 3.413 3.18 3 6h3c.194-2.83.86-5.496 2-8a8.43 8.43 0 0 1-4-.5 345.324 345.324 0 0 0 3-17.5Z"/><path style="opacity:.271" fill="#c2d6e1" d="M39.5 294.5a168.167 168.167 0 0 1-1.5 8l-1-1c-4.204 18.994 1.963 32.328 18.5 40a96.54 96.54 0 0 0 24 .5l-1-1a8.43 8.43 0 0 1 4-.5l2 1a108.885 108.885 0 0 1-13 5c-6.226.112-12.226-.554-18-2-3.445-1.23-6.445-3.23-9-6a84.01 84.01 0 0 0-7.5-8 2403.716 2403.716 0 0 1-3.5-11c-.315-3.871.018-7.538 1-11 .808 12.294.808 11.627 0-2 .605-4.532 2.272-8.532 5-12Z"/><path style="opacity:.996" fill="#5890ca" d="M121.5 307.5c-1.38 2.219-1.046 4.219 1 6-1.151 1.231-2.317 1.231-3.5 0-.658 1.608-.158 2.775 1.5 3.5-1.383 1.461-1.049 2.294 1 2.5-1.617 3.284-3.95 5.951-7 8-1.263-1.93-2.93-3.597-5-5 2.477-1.38 2.477-2.38 0-3a172.622 172.622 0 0 0 10-11.5 2.428 2.428 0 0 1 2-.5Z"/><path style="opacity:.996" fill="#558ecb" d="M417.5 312.5a163.297 163.297 0 0 1 21 22c-1.544-.203-2.878-.87-4-2v6l-5.5-5c-.492-1.049-.326-2.049.5-3a7.293 7.293 0 0 0-3-2c-.246 1.72-.246 3.72 0 6l-19-18-1-2c-.131-.876.202-1.543 1-2a24.98 24.98 0 0 1 7 4c.557-1.832 1.557-3.165 3-4Z"/><path style="opacity:.157" fill="#a5b7c2" d="m143.5 299.5 2 1a44.537 44.537 0 0 0-4.5 6 1633.216 1633.216 0 0 0-30.5 29c-.831 1.973-.998 3.973-.5 6l-1 1c-.335-2.69-1.501-3.357-3.5-2v-3a64.231 64.231 0 0 1 9-10c3.05-2.049 5.383-4.716 7-8a214.996 214.996 0 0 0 18-17c1.026-1.353 2.359-2.353 4-3Z"/><path style="opacity:.986" fill="#568ecb" d="M109.5 319.5c2.477.62 2.477 1.62 0 3 2.07 1.403 3.737 3.07 5 5a64.231 64.231 0 0 0-9 10c-2.615.95-4.615 2.617-6 5h-1c-.077-1.25-.744-2.083-2-2.5 2.832-.98 4.498-2.98 5-6-2.375-2.407-3.375-1.907-3 1.5h-5a181.118 181.118 0 0 1 16-16Z"/><path style="opacity:.996" fill="#578ecb" d="M509.5 300.5c.665 3.149.998 6.482 1 10 1.197 10.576-1.47 19.909-8 28 .355 1.022 1.022 1.689 2 2-.333 1-1 1.667-2 2 .172-.992-.162-1.658-1-2-1.743-1.141-2.743-2.808-3-5 .907-4.165 2.907-7.665 6-10.5-2.667-2-2.667-4 0-6-.578-1.417-1.578-2.25-3-2.5v-11c.814 2.131 1.314 4.464 1.5 7a7.248 7.248 0 0 1 2.5-2c.476 2.684 1.476 5.017 3 7a73.133 73.133 0 0 0 1-17Z"/><path style="opacity:.11" fill="#b7c9d2" d="m403.5 315.5 4 1 19 18a84.04 84.04 0 0 1 9 9c2.524 2.739 3.524 6.072 3 10-1.174-1.014-1.84-2.347-2-4-8.185-9.345-16.518-17.845-25-25.5-2.195-3.359-4.862-6.193-8-8.5Z"/><path style="opacity:.996" fill="#588fcc" d="M501.5 316.5c1.422.25 2.422 1.083 3 2.5-2.667 2-2.667 4 0 6-3.093 2.835-5.093 6.335-6 10.5.257 2.192 1.257 3.859 3 5a29.266 29.266 0 0 1-10 8 95.99 95.99 0 0 1-5-6c1.573-2.336 2.906-2.336 4 0l2-2a76.734 76.734 0 0 1 1-6 54.612 54.612 0 0 0 8-18Z"/><path style="opacity:.996" fill="#558ece" d="M98.5 342.5v13c-.896-1.006-1.562-1.006-2 0-1.822-.929-3.155-.262-4 2h-2c1.224-3.005 1.224-6.005 0-9l-5.5-1c-9.138.657-18.305 2.324-27.5 5-2.676-.337-5.343-.67-8-1a4.932 4.932 0 0 1 .5-3c4.342 2.084 8.842 2.417 13.5 1l-10-2 3-1c5.158 1.193 10.158 1.193 15 0a108.885 108.885 0 0 0 13-5l9-6h5c-.375-3.407.625-3.907 3-1.5-.502 3.02-2.168 5.02-5 6 1.256.417 1.923 1.25 2 2.5Z"/><path style="opacity:.992" fill="#548ccf" d="M438.5 334.5h1c.117 1.984-.55 3.65-2 5 2.997 1.817 4.997 4.317 6 7.5-.209 4.271-1.042 4.104-2.5-.5a72.367 72.367 0 0 0-.5 12h-1v-15h-4a84.04 84.04 0 0 0-9-9c-.246-2.28-.246-4.28 0-6a7.293 7.293 0 0 1 3 2c-.826.951-.992 1.951-.5 3l5.5 5v-6c1.122 1.13 2.456 1.797 4 2Z"/><path style="opacity:.941" fill="#548dcb" d="M44.5 338.5c2.555 2.77 5.555 4.77 9 6-2.745-.127-4.745 1.04-6 3.5l1 1a18.452 18.452 0 0 1-6 .5c-1.085-2.087-2.751-3.42-5-4-.126-1.7-.793-3.2-2-4.5a18.969 18.969 0 0 0 3.5-6.5c1.451 1.964 3.284 3.297 5.5 4Z"/><path style="opacity:.376" fill="#bdd1dd" d="M501.5 305.5v11a54.612 54.612 0 0 1-8 18 63.778 63.778 0 0 1-14 10.5c-9.376 2.009-18.709 1.843-28-.5a32.6 32.6 0 0 0-4.5-4c-.692-.937-.525-1.603.5-2a65.064 65.064 0 0 0 8 2.5l-2 1 11 1-4 1c4.333.667 8.667.667 13 0l-7-1c15.112.351 24.946-6.482 29.5-20.5l1 2c.029-2.867.862-5.367 2.5-7.5.23-3.059-.103-6.226-1-9.5 1.238-.31 1.238-.81 0-1.5a4.934 4.934 0 0 1 3-.5Z"/><path style="opacity:.149" fill="#b6c8d8" d="M501.5 340.5c.838.342 1.172 1.008 1 2-3.124 4.703-7.79 8.37-14 11-.789-.283-1.456-.783-2-1.5 1.733-1.189 3.4-2.356 5-3.5a29.266 29.266 0 0 0 10-8Z"/><path style="opacity:.996" fill="#5c92cd" d="M53.5 344.5c5.774 1.446 11.774 2.112 18 2-4.842 1.193-9.842 1.193-15 0l-3 1 10 2c-4.658 1.417-9.158 1.084-13.5-1a4.932 4.932 0 0 0-.5 3c2.657.33 5.324.663 8 1 9.195-2.676 18.362-4.343 27.5-5l5.5 1c1.224 2.995 1.224 5.995 0 9v91h-1v-97c-1.599-.268-2.932.066-4 1-1.16 1.703-.493 2.369 2 2 .268 1.599-.066 2.932-1 4a4.932 4.932 0 0 0-.5-3c-.67.752-1.504 1.086-2.5 1a457.55 457.55 0 0 0-26-.5c-5.506-1.431-10.506-3.598-15-6.5a18.452 18.452 0 0 0 6-.5l-1-1c1.255-2.46 3.255-3.627 6-3.5Z"/><path style="opacity:.993" fill="#578fca" d="M493.5 334.5a76.734 76.734 0 0 0-1 6l-2 2c-1.094-2.336-2.427-2.336-4 0a95.99 95.99 0 0 0 5 6 315.024 315.024 0 0 1-5 3.5c.544.717 1.211 1.217 2 1.5-.333 1-1 1.667-2 2 .085-1.495-.581-2.495-2-3a29.817 29.817 0 0 1-10 3c-4.637-2.213-9.637-3.879-15-5-3.087-3.489-6.42-3.822-10-1-1.267.587-2.267.587-3 0 1.97-1.461 3.637-3.127 5-5 9.291 2.343 18.624 2.509 28 .5a63.778 63.778 0 0 0 14-10.5Z"/><path style="opacity:.996" fill="#5890cd" d="M474.5 355.5c-8.115 1.717-16.115 1.05-24-2-.342-.838-1.008-1.172-2-1a39.445 39.445 0 0 0 5-2.5 8.43 8.43 0 0 0-4-.5c3.58-2.822 6.913-2.489 10 1 5.363 1.121 10.363 2.787 15 5Z"/><path style="opacity:.977" fill="#538cca" d="M439.5 334.5a409.027 409.027 0 0 0 6 3c1.425-1.531 2.091-1.198 2 1-1.025.397-1.192 1.063-.5 2a32.6 32.6 0 0 1 4.5 4c-1.363 1.873-3.03 3.539-5 5 .733.587 1.733.587 3 0a8.43 8.43 0 0 1 4 .5 39.445 39.445 0 0 1-5 2.5 2352.52 2352.52 0 0 0-1 97c-.722-.418-1.222-1.084-1.5-2l-1-90c-.383.556-.883.889-1.5 1a8.43 8.43 0 0 0-.5-4c-1.319 1.75-1.819 3.75-1.5 6-.838-.342-1.172-1.008-1-2a72.367 72.367 0 0 1 .5-12c1.458 4.604 2.291 4.771 2.5.5-1.003-3.183-3.003-5.683-6-7.5 1.45-1.35 2.117-3.016 2-5Z"/><path style="opacity:.996" fill="#568bcd" d="M443.5 358.5v86c-1.992-27.647-2.658-55.647-2-84-.319-2.25.181-4.25 1.5-6a8.43 8.43 0 0 1 .5 4Z"/><path style="opacity:.993" fill="#518ec9" d="M90.5 358.5v-1h2c-.331 25.839.002 51.505 1 77a58.334 58.334 0 0 0 2 3c-.237 2.563-.737 2.563-1.5 0-.28 3.67-.112 7.337.5 11v2c-2.356 2.057-3.356 4.724-3 8-1.674-3.007-2.341-6.34-2-10h1c1.3-1.723 1.967-3.89 2-6.5-.61-27.994-1.277-55.828-2-83.5Z"/><path style="opacity:.996" fill="#4f8fc6" d="M96.5 355.5v2c-.617.111-1.117.444-1.5 1a2870.65 2870.65 0 0 1-1.5 76 1482.822 1482.822 0 0 1-1-77c.845-2.262 2.178-2.929 4-2Z"/><path style="opacity:.994" fill="#558ccb" d="M96.5 357.5a4089.856 4089.856 0 0 0 0 89c0 1.333-.667 2-2 2a45.523 45.523 0 0 1-.5-11c.763 2.563 1.263 2.563 1.5 0a58.334 58.334 0 0 1-2-3 2870.65 2870.65 0 0 0 1.5-76c.383-.556.883-.889 1.5-1Z"/><path style="opacity:.311" fill="#adc9e0" d="M436.5 349.5c.16 1.653.826 2.986 2 4v39c-.827-5.151-1.327-10.484-1.5-16a12.93 12.93 0 0 0-.5 5c-.778-11.057-.778-21.724 0-32Z"/><path style="opacity:.704" fill="#6c9ed0" d="M435.5 343.5h4v110c-.432 1.21-1.099 2.21-2 3a223.464 223.464 0 0 0 1-28v-75c.524-3.928-.476-7.261-3-10Z"/><path style="opacity:.996" fill="#4f8aca" d="M439.5 358.5h1c-.172.992.162 1.658 1 2-.658 28.353.008 56.353 2 84l2 12c.262 1.478-.071 2.811-1 4a34.251 34.251 0 0 1-1.5-8c-1.016 1.134-1.683.801-2-1-.278.916-.778 1.582-1.5 2v-95Z"/><path style="opacity:.996" fill="#5091c7" d="M447.5 449.5a51.569 51.569 0 0 0-1 7h-1l-2-12v-86c.617-.111 1.117-.444 1.5-1l1 90c.278.916.778 1.582 1.5 2Z"/><path style="opacity:.358" fill="#dce4e7" d="M486.5 355.5c-4.109 1.519-8.443 2.353-13 2.5l5 1c-7.667.667-15.333.667-23 0l4-1a24.935 24.935 0 0 0-7-.5c.167 31.335 0 62.668-.5 94l-1-96c-.5 26.665-.667 53.331-.5 80l-2-69c-.597-4.794.07-9.127 2-13 7.885 3.05 15.885 3.717 24 2a29.817 29.817 0 0 0 10-3c1.419.505 2.085 1.505 2 3Z"/><path style="opacity:.999" fill="#5088ca" d="M90.5 358.5c.723 27.672 1.39 55.506 2 83.5-.033 2.61-.7 4.777-2 6.5v-90Z"/><path style="opacity:.169" fill="#e6f2f4" d="M85.5 352.5h3c.66 32.684-.007 65.017-2 97v-91c.934-1.068 1.268-2.401 1-4-2.493.369-3.16-.297-2-2Z"/><path style="opacity:1" fill="#508bce" d="M98.5 355.5v3l-2 88a4089.856 4089.856 0 0 1 0-89v-2c.438-1.006 1.104-1.006 2 0Z"/><path style="opacity:.878" fill="#578ed0" d="M98.5 358.5v89a70.915 70.915 0 0 0-2 4 44.147 44.147 0 0 0-2-1v-2c1.333 0 2-.667 2-2l2-88Z"/><path style="opacity:.675" fill="#7caada" d="M448.5 352.5c.992-.172 1.658.162 2 1-1.93 3.873-2.597 8.206-2 13 .167 30.002 0 60.002-.5 90-.198 1.882-.698 3.548-1.5 5v-5a51.569 51.569 0 0 1 1-7 2352.52 2352.52 0 0 1 1-97Z"/><path style="opacity:.357" fill="#c8d9e6" d="m448.5 366.5 2 69c.166 9.339 0 18.673-.5 28l-1-1-1 9-1-2c-.29 2.42-.79 4.754-1.5 7-.961-1.765-1.295-3.765-1-6v-2a67.898 67.898 0 0 0 2-7c.802-1.452 1.302-3.118 1.5-5 .5-29.998.667-59.998.5-90Z"/><path style="opacity:.3" fill="#cee2e8" d="M105.5 337.5v3c-.707 1.634-1.873 2.968-3.5 4-.5 8.994-.666 17.994-.5 27a1049.474 1049.474 0 0 0-1.5 46c-.5-24.998-.667-49.998-.5-75 1.385-2.383 3.385-4.05 6-5Z"/><path style="opacity:.337" fill="#bed8ed" d="M438.5 392.5v36h-2c-.878-15.822-.878-31.488 0-47a12.93 12.93 0 0 1 .5-5c.173 5.516.673 10.849 1.5 16Z"/><path style="opacity:.412" fill="#b1cce6" d="M85.5 352.5c1.068-.934 2.401-1.268 4-1v97c-.341 3.66.326 6.993 2 10 .378 2.146.712 4.313 1 6.5.107 2.221-.56 4.054-2 5.5.088-3.098-.412-3.432-1.5-1l-1-11-1 1a50.442 50.442 0 0 1-.5-10c1.993-31.983 2.66-64.316 2-97h-3Z"/><path style="opacity:.294" fill="#bed1e7" d="M98.5 342.5h1c-.167 25.002 0 50.002.5 75 .169-15.505.669-30.839 1.5-46-.386 29.688.114 59.354 1.5 89l1-1 1 8 1-2a64.348 64.348 0 0 0 4 15l1-2c1.15 4.624 3.316 8.624 6.5 12-.283.789-.783 1.456-1.5 2-5.827-7.328-10.327-15.328-13.5-24 .241-2.398-.426-4.398-2-6-.853-4.97-1.52-9.97-2-15v-105Z"/><path style="opacity:.165" fill="#cedbeb" d="M279.5 462.5c-2.691-5.11-4.025-10.776-4-17h-13v3c-1.588 6.455-2.754 13.122-3.5 20-1.982 2.498-3.482 5.165-4.5 8v-5c.817-2.469 1.317-5.135 1.5-8l1 2a219.618 219.618 0 0 0 2-19c.652-2.223 2.152-3.39 4.5-3.5l-1-1a42.479 42.479 0 0 1 13 0l-10 1c4.253.2 8.42.7 12.5 1.5l1 12 1-2c.722 2.761.555 5.427-.5 8Z"/><path style="opacity:.998" fill="#5a8dcc" d="M98.5 447.5c.48 5.03 1.147 10.03 2 15a31.774 31.774 0 0 1-2.5 7c-.576-1.877-.41-3.711.5-5.5-1.628-3.585-2.462-7.419-2.5-11.5l-2 2c-.373 5.726.46 11.226 2.5 16.5.113 1.699-.553 2.866-2 3.5-.667-2.667-1.333-2.667-2 0-1.677-.683-2.343-2.017-2-4 1.44-1.446 2.107-3.279 2-5.5a151.945 151.945 0 0 0-1-6.5c-.356-3.276.644-5.943 3-8 .65.304 1.317.637 2 1a70.915 70.915 0 0 1 2-4Z"/><path style="opacity:.996" fill="#578ecb" d="M279.5 462.5c1.333 0 2 .667 2 2-1.175-.219-2.175.114-3 1a18.074 18.074 0 0 1 2 8c.351 2.369.518 4.703.5 7a75.95 75.95 0 0 1-3.5-7.5c-1.769-1.019-3.436-1.186-5-.5-1.247-1.506-1.247-3.006 0-4.5-2.402-.814-4.735-.647-7 .5a9.108 9.108 0 0 1 1 5c-1.439 1.009-2.772.676-4-1a12.817 12.817 0 0 1-2-5.5 75.96 75.96 0 0 0 2-18.5v-3h13c-.025 6.224 1.309 11.89 4 17Z"/><path style="opacity:.996" fill="#528ccc" d="M266.5 446.5h7c-.115 4.739-1.448 9.072-4 13 1.562 2.401 1.229 4.401-1 6a20.51 20.51 0 0 1-3-8c.56-3.754.893-7.421 1-11Z"/><path style="opacity:.996" fill="#568ecd" d="M100.5 462.5c1.574 1.602 2.241 3.602 2 6-1.643 2.373-2.476 5.706-2.5 10-.708.881-1.542 1.547-2.5 2-1.37-1.75-2.37-3.75-3-6 1.447-.634 2.113-1.801 2-3.5-2.04-5.274-2.873-10.774-2.5-16.5l2-2c.038 4.081.872 7.915 2.5 11.5-.91 1.789-1.076 3.623-.5 5.5a31.774 31.774 0 0 0 2.5-7Z"/><path style="opacity:.976" fill="#538cce" d="M444.5 468.5v2a160.897 160.897 0 0 1-9 18c-2.828-.94-4.828-2.773-6-5.5l1-1.5 2 3c.821-2.946.821-5.946 0-9 1.703-1.16 2.369-.493 2 2 1.624-.14 2.79.527 3.5 2a69.024 69.024 0 0 0 6-17c.495 1.973.662 3.973.5 6Z"/><path style="opacity:.996" fill="#5790ca" d="M445.5 456.5h1v5a67.898 67.898 0 0 1-2 7 18.453 18.453 0 0 0-.5-6 69.024 69.024 0 0 1-6 17c-.71-1.473-1.876-2.14-3.5-2 .369-2.493-.297-3.16-2-2a307.16 307.16 0 0 1 5-19c.901-.79 1.568-1.79 2-3 .722-.418 1.222-1.084 1.5-2 .317 1.801.984 2.134 2 1a34.251 34.251 0 0 0 1.5 8c.929-1.189 1.262-2.522 1-4Z"/><path style="opacity:.996" fill="#5f95cd" d="M262.5 448.5a75.96 75.96 0 0 1-2 18.5 12.817 12.817 0 0 0 2 5.5c1.228 1.676 2.561 2.009 4 1-1.187 5.367-3.187 10.367-6 15a80.682 80.682 0 0 0-3-5.5c2.018-2.172 2.351-4.505 1-7-.832-.688-1.498-.521-2 .5-1.16 2.211-2.493 4.211-4 6a31.686 31.686 0 0 1 2-6c1.018-2.835 2.518-5.502 4.5-8 .746-6.878 1.912-13.545 3.5-20Z"/><path style="opacity:.098" fill="#c0d1df" d="M281.5 464.5c3.881 16.555 13.547 30.889 29 43-.838.342-1.172 1.008-1 2h-1l-5-4a110.18 110.18 0 0 1-12-13 89.906 89.906 0 0 1-11-19 18.074 18.074 0 0 0-2-8c.825-.886 1.825-1.219 3-1Z"/><path style="opacity:.133" fill="#bfc7e3" d="M436.5 428.5h2a223.464 223.464 0 0 1-1 28 307.16 307.16 0 0 0-5 19c-2.547 2.759-4.047 6.092-4.5 10-1.966 1.28-3.466 2.947-4.5 5 0 1.333-.667 2-2 2 0-.667-.333-1-1-1-1.093-2.067-.593-2.734 1.5-2 2.196-4.937 4.196-9.27 6-13l1 1a62.156 62.156 0 0 0 4-18l1 5c.039-5.35.872-10.517 2.5-15.5-1.114-6.761-1.114-13.594 0-20.5Z"/><path style="opacity:.224" fill="#c1d1d9" d="M254.5 471.5v5a31.686 31.686 0 0 0-2 6c-2.104 1.872-3.437 4.205-4 7a121.522 121.522 0 0 1-18 19 5.727 5.727 0 0 0-3 1c-.06-.543-.393-.876-1-1a12.805 12.805 0 0 1-6 3c12.411-8.237 22.245-18.237 29.5-30 2.254-3.677 3.587-7.677 4-12 .464.594.631 1.261.5 2Z"/><path style="opacity:.035" fill="#c4d2db" d="M268.5 475.5v1c-1.333.667-1.333 1.333 0 2-1.484 1.344-2.318 3.678-2.5 7l-1-1c-.122 1.937-.955 3.27-2.5 4h-2c2.813-4.633 4.813-9.633 6-15a44.093 44.093 0 0 0 2-3c2.43 1.537 2.43 3.204 0 5Z"/><path style="opacity:.996" fill="#5a90cc" d="M280.5 473.5a89.906 89.906 0 0 0 11 19 22.766 22.766 0 0 0-6 7 55.963 55.963 0 0 1-8.5-11 20.51 20.51 0 0 1-3-8c-.908-1.939-2.408-2.939-4.5-3-.667 0-1 .333-1 1-1.333-.667-1.333-1.333 0-2 1.333-.333 1.333-.667 0-1 2.43-1.796 2.43-3.463 0-5a44.093 44.093 0 0 1-2 3 9.108 9.108 0 0 0-1-5c2.265-1.147 4.598-1.314 7-.5-1.247 1.494-1.247 2.994 0 4.5 1.564-.686 3.231-.519 5 .5a75.95 75.95 0 0 0 3.5 7.5 45.296 45.296 0 0 0-.5-7Z"/><path style="opacity:.004" d="M268.5 483.5c1.333.667 1.333.667 0 0Z"/><path style="opacity:.004" fill="#180d30" d="M267.5 485.5c1.098 1.101 1.265 2.434.5 4a8.43 8.43 0 0 1-.5-4Z"/><path style="opacity:.22" fill="#b4c3d6" d="M444.5 470.5c-.295 2.235.039 4.235 1 6a443.922 443.922 0 0 1-13 25l-15 15c-8.638 6.591-17.305 11.925-26 16-1.135-1.713-2.802-2.38-5-2 10.188-3.763 19.521-9.096 28-16 0-.667.333-1 1-1a85.693 85.693 0 0 0 11-11 76.484 76.484 0 0 0 9-14 160.897 160.897 0 0 0 9-18Z"/><path style="opacity:.004" fill="#240fa2" d="M444.5 486.5c1.025.397 1.192 1.063.5 2a2.428 2.428 0 0 1-.5-2Z"/><path style="opacity:.996" fill="#5d92cd" d="M102.5 468.5c3.173 8.672 7.673 16.672 13.5 24 .717-.544 1.217-1.211 1.5-2 .904.709 1.237 1.709 1 3-.543.06-.876.393-1 1 1.13 1.122 1.797 2.456 2 4-2.66-2.633-5.327-5.3-8-8-.918 2.339-2.584 3.839-5 4.5 2.177 1.186 3.177 3.019 3 5.5-5.291-5.85-9.291-12.517-12-20 .958-.453 1.792-1.119 2.5-2 .024-4.294.857-7.627 2.5-10Z"/><path style="opacity:.996" fill="#568fcc" d="M432.5 475.5c.821 3.054.821 6.054 0 9l-2-3-1 1.5c1.172 2.727 3.172 4.56 6 5.5a76.484 76.484 0 0 1-9 14c-.299-2.473-1.299-4.64-3-6.5 1.148-1.726 2.315-1.559 3.5.5.619-3.101-.548-5.101-3.5-6 1.034-2.053 2.534-3.72 4.5-5 .453-3.908 1.953-7.241 4.5-10Z"/><path style="opacity:.004" d="M440.5 491.5c2.47.86 2.637 2.194.5 4-1.768-1.182-1.935-2.515-.5-4Z"/><path style="opacity:.976" fill="#5890cd" d="M423.5 490.5c2.952.899 4.119 2.899 3.5 6-1.185-2.059-2.352-2.226-3.5-.5 1.701 1.86 2.701 4.027 3 6.5a85.693 85.693 0 0 1-11 11c.657-2.51 1.991-4.677 4-6.5-.74-2.943-1.74-3.109-3-.5-1.189.929-2.522 1.262-4 1 .406 1.609.406 2.943 0 4a8.905 8.905 0 0 0-4-3c-1.122 1.13-2.456 1.797-4 2a109.032 109.032 0 0 0 17-18c1.333 0 2-.667 2-2Z"/><path style="opacity:.996" fill="#568dcc" d="M260.5 488.5h2c.237 1.291-.096 2.291-1 3-.321-1.548-1.321-2.215-3-2-1.67 4.675-4.336 8.675-8 12-1.322.17-2.489-.163-3.5-1-3.744 4.203-4.91 3.536-3.5-2 1.189-.929 2.522-1.262 4-1a24.93 24.93 0 0 1 1-8c.563-2.795 1.896-5.128 4-7 1.507-1.789 2.84-3.789 4-6 .502-1.021 1.168-1.188 2-.5 1.351 2.495 1.018 4.828-1 7a80.682 80.682 0 0 1 3 5.5Z"/><path style="opacity:.204" fill="#bacbdc" d="M269.5 477.5c2.092.061 3.592 1.061 4.5 3a20.51 20.51 0 0 0 3 8 55.963 55.963 0 0 0 8.5 11c1.617 3.284 3.95 5.951 7 8a54.912 54.912 0 0 0 7 7h-4c-6.218-4.404-11.051-10.07-14.5-17l-1 1a25.82 25.82 0 0 0-5-7c-1.966-3.958-3.799-8.624-5.5-14Z"/><path style="opacity:.976" fill="#578fcc" d="M291.5 492.5a110.18 110.18 0 0 0 12 13c-.996.086-1.829-.248-2.5-1a4.934 4.934 0 0 0-.5 3h-4l1-6c-3.387.362-5.053 2.362-5 6-3.05-2.049-5.383-4.716-7-8a22.766 22.766 0 0 1 6-7Z"/><path style="opacity:.996" fill="#528ccd" d="M119.5 498.5a568.104 568.104 0 0 0-4 5c-.825.886-1.825 1.219-3 1l-3-4c.177-2.481-.823-4.314-3-5.5 2.416-.661 4.082-2.161 5-4.5 2.673 2.7 5.34 5.367 8 8Z"/><path style="opacity:.004" d="M437.5 496.5c3.361.703 3.694 2.037 1 4-2.2-.825-2.534-2.158-1-4ZM434.5 500.5c1.333.667 1.333.667 0 0Z"/><path style="opacity:.067" fill="#c6ced9" d="M94.5 474.5c.63 2.25 1.63 4.25 3 6 2.709 7.483 6.709 14.15 12 20l3 4c1 1.667 2.333 3 4 4 5.466 6.136 11.799 11.136 19 15-.342.838-1.008 1.172-2 1a17.419 17.419 0 0 1-8-3.5l1-1c-9.751-5.149-17.251-12.649-22.5-22.5l-1 1a113.665 113.665 0 0 1-6-13l-1 1a60.634 60.634 0 0 1-3-9c-.654 1.196-1.154 1.196-1.5 0a5.577 5.577 0 0 0 1-3c.667-2.667 1.333-2.667 2 0Z"/><path style="opacity:.004" d="M432.5 501.5h2c.449 2.477-.217 4.477-2 6-1.019-1.96-1.019-3.96 0-6Z"/><path style="opacity:.255" fill="#b4c7da" d="M118.5 493.5c6.191 5.568 12.191 10.734 18 15.5a91.982 91.982 0 0 0 28 11.5c-.086.996.248 1.829 1 2.5a116.32 116.32 0 0 0 34 .5c-1.109.79-2.442 1.29-4 1.5a122.933 122.933 0 0 1-33-1.5c-6.308-1.161-12.308-2.994-18-5.5a31.515 31.515 0 0 0-9-5.5 26.175 26.175 0 0 0-7-5 57.51 57.51 0 0 1-9-9c-.203-1.544-.87-2.878-2-4 .124-.607.457-.94 1-1Z"/><path style="opacity:.914" fill="#5991cb" d="M248.5 489.5a24.93 24.93 0 0 0-1 8c-1.478-.262-2.811.071-4 1-1.41 5.536-.244 6.203 3.5 2 1.011.837 2.178 1.17 3.5 1-3.027 4.361-6.694 8.027-11 11 .376-3.207-.624-5.873-3-8-2.457 1.501-2.457 3.168 0 5-1.223 1.114-2.556 1.281-4 .5.951-.718 1.117-1.551.5-2.5-.671.752-1.504 1.086-2.5 1a121.522 121.522 0 0 0 18-19Z"/><path style="opacity:.004" d="M255.5 505.5c1.333.667 1.333.667 0 0Z"/><path style="opacity:.039" fill="#a8b6c5" d="M261.5 491.5a132.792 132.792 0 0 1-8 13c-1.551 2.045-3.551 3.545-6 4.5l1 1a63.726 63.726 0 0 0-10 9 4.934 4.934 0 0 1-3 .5c-.342-.838-1.008-1.172-2-1a25.619 25.619 0 0 0 6-6c4.306-2.973 7.973-6.639 11-11 3.664-3.325 6.33-7.325 8-12 1.679-.215 2.679.452 3 2Z"/><path style="opacity:.004" d="M427.5 508.5c1.098 1.101 1.265 2.434.5 4a8.43 8.43 0 0 1-.5-4Z"/><path style="opacity:.991" fill="#5d94cd" d="M128.5 507.5a26.175 26.175 0 0 1 7 5 87.646 87.646 0 0 1-9 3.5c1.244 2.303 2.911 2.803 5 1.5a18.633 18.633 0 0 0 4 6c-7.201-3.864-13.534-8.864-19-15 1.89.203 3.39-.463 4.5-2l1.5 3c-.346 1.196-.846 1.196-1.5 0-.333 2.667.667 3.333 3 2l2.5 3a38.36 38.36 0 0 0 0-4.5c.881-.708 1.547-1.542 2-2.5Z"/><path style="opacity:.996" fill="#558ec9" d="M119.5 498.5a57.51 57.51 0 0 0 9 9c-.453.958-1.119 1.792-2 2.5a38.36 38.36 0 0 1 0 4.5l-2.5-3c-2.333 1.333-3.333.667-3-2 .654 1.196 1.154 1.196 1.5 0l-1.5-3c-1.11 1.537-2.61 2.203-4.5 2-1.667-1-3-2.333-4-4 1.175.219 2.175-.114 3-1 1.366-1.727 2.7-3.394 4-5Z"/><path style="opacity:.984" fill="#558bcb" d="m303.5 505.5 5 4c.085 1.495-.581 2.495-2 3-1.468-1.833-3.135-2.166-5-1 1.372 2.12.705 3.12-2 3a54.912 54.912 0 0 1-7-7c-.053-3.638 1.613-5.638 5-6l-1 6h4a4.934 4.934 0 0 1 .5-3c.671.752 1.504 1.086 2.5 1Z"/><path style="opacity:.996" fill="#538ccc" d="M239.5 512.5a25.619 25.619 0 0 1-6 6 5.727 5.727 0 0 0-3 1 54.168 54.168 0 0 1-9-4l6-1c-1.511-2.338-1.177-3.004 1-2a16.332 16.332 0 0 0 2-4c.996.086 1.829-.248 2.5-1 .617.949.451 1.782-.5 2.5 1.444.781 2.777.614 4-.5-2.457-1.832-2.457-3.499 0-5 2.376 2.127 3.376 4.793 3 8Z"/><path style="opacity:.987" fill="#5990ca" d="M308.5 509.5h1a87.088 87.088 0 0 0 12 9 12.93 12.93 0 0 1-5-.5c-1.333-.667-1.333-1.333 0-2-3.858-.423-5.858 1.41-6 5.5a33.212 33.212 0 0 1-10.5-6c-1.03.336-1.53 1.003-1.5 2a6.547 6.547 0 0 1-3-3h4c2.705.12 3.372-.88 2-3 1.865-1.166 3.532-.833 5 1 1.419-.505 2.085-1.505 2-3Z"/><path style="opacity:.979" fill="#528bcc" d="M415.5 513.5c-.667 0-1 .333-1 1l-7-2v3a53.085 53.085 0 0 0-9 4c-2.01-.326-4.01-.659-6-1 1.493-.641 2.493-1.641 3-3a42.47 42.47 0 0 0 5-1.5c.603-2.071 1.936-3.238 4-3.5 1.544-.203 2.878-.87 4-2a8.905 8.905 0 0 1 4 3c.406-1.057.406-2.391 0-4 1.478.262 2.811-.071 4-1 1.26-2.609 2.26-2.443 3 .5-2.009 1.823-3.343 3.99-4 6.5Z"/><path style="opacity:.149" fill="#c9d6e1" d="M227.5 509.5c-8.7 6.057-18.033 10.724-28 14a116.32 116.32 0 0 1-34-.5c-.752-.671-1.086-1.504-1-2.5 4.966.746 9.966 1.413 15 2a186.32 186.32 0 0 0 30-5.5l-1-1a93.964 93.964 0 0 0 12-4.5 12.805 12.805 0 0 0 6-3c.607.124.94.457 1 1Z"/><path style="opacity:.31" fill="#c0cede" d="M310.5 507.5c5.191 2.113 9.524 4.613 13 7.5 10.003 4.372 21.169 6.872 33.5 7.5 4.979-1.429 10.812-2.096 17.5-2 0 1.333.667 2 2 2v1c-1.291-.237-2.291.096-3 1-9.724 1.187-19.39 1.187-29 0a194.5 194.5 0 0 1-23-6 87.088 87.088 0 0 1-12-9c-.172-.992.162-1.658 1-2Z"/><path style="opacity:.125" fill="#bdccde" d="M310.5 521.5c3.517 3.517 7.851 5.517 13 6 1.926.986 3.926 1.986 6 3 5.326.581 10.659 1.748 16 3.5 6.658.5 13.325.666 20 .5a156.972 156.972 0 0 0 21-4c2.198-.38 3.865.287 5 2-7.802 1.974-16.302 3.974-25.5 6-6.993-1.112-13.827-1.112-20.5 0a262.447 262.447 0 0 0-19-4.5l1-1a43.23 43.23 0 0 1-10-3l1-1a57.615 57.615 0 0 1-10-4.5 50.367 50.367 0 0 1-10-7c-.03-.997.47-1.664 1.5-2a33.212 33.212 0 0 0 10.5 6Z"/><path style="opacity:.133" fill="#c3d1da" d="M420.5 491.5c.667 0 1 .333 1 1a109.032 109.032 0 0 1-17 18c-2.064.262-3.397 1.429-4 3.5a42.47 42.47 0 0 1-5 1.5 226.773 226.773 0 0 1-19 7c-1.333 0-2-.667-2-2 17.042-4.269 32.375-13.936 46-29Z"/><path style="opacity:.996" fill="#538dcc" d="M135.5 512.5a31.515 31.515 0 0 1 9 5.5c5.692 2.506 11.692 4.339 18 5.5.03.997-.47 1.664-1.5 2a63.81 63.81 0 0 0-12.5 3 51.315 51.315 0 0 1-13-5 18.633 18.633 0 0 1-4-6c-2.089 1.303-3.756.803-5-1.5a87.646 87.646 0 0 0 9-3.5Z"/><path style="opacity:.996" fill="#578fca" d="M230.5 508.5a16.332 16.332 0 0 1-2 4c-2.177-1.004-2.511-.338-1 2l-6 1a54.168 54.168 0 0 0 9 4 193.434 193.434 0 0 1-18 9.5 40.522 40.522 0 0 1-12 3.5 883.179 883.179 0 0 0-19-2.5 151.663 151.663 0 0 0 30-3 4.457 4.457 0 0 0 2-1.5c-2.82-1.194-5.653-1.194-8.5 0-1.597-1.385-3.43-2.051-5.5-2 9.967-3.276 19.3-7.943 28-14a5.727 5.727 0 0 1 3-1Z"/><path style="opacity:.973" fill="#5c93cb" d="M414.5 514.5c-8.479 6.904-17.812 12.237-28 16a156.972 156.972 0 0 1-21 4l5-2c.934-1.068 1.268-2.401 1-4 2.121-.175 4.121.159 6 1 1.56.019 3.06.352 4.5 1a24.839 24.839 0 0 1 9.5-4.5c1.333-1 1.333-2 0-3l5-1a14.719 14.719 0 0 1-6.5-2.5 44.975 44.975 0 0 1-13.5 4v-1a226.773 226.773 0 0 0 19-7c-.507 1.359-1.507 2.359-3 3 1.99.341 3.99.674 6 1a53.085 53.085 0 0 1 9-4v-3l7 2Z"/><path style="opacity:.004" fill="#00fffe" d="M308.5 524.5c-.667.667-.667.667 0 0Z"/><path style="opacity:.984" fill="#568ecb" d="M321.5 518.5a194.5 194.5 0 0 0 23 6 40.914 40.914 0 0 0-9 .5c1.394.171 2.228.671 2.5 1.5-1.989-.179-3.989.488-6 2-2.184-.385-4.018-1.385-5.5-3-1.538-.047-2.538.62-3 2-5.149-.483-9.483-2.483-13-6 .142-4.09 2.142-5.923 6-5.5-1.333.667-1.333 1.333 0 2a12.93 12.93 0 0 0 5 .5Z"/><path style="opacity:.995" fill="#528bcc" d="M377.5 529.5c.111-.617.444-1.117 1-1.5l-4-1c-.752-.671-1.086-1.504-1-2.5.709-.904 1.709-1.237 3-1a44.975 44.975 0 0 0 13.5-4 14.719 14.719 0 0 0 6.5 2.5l-5 1c1.333 1 1.333 2 0 3a24.839 24.839 0 0 0-9.5 4.5 11.187 11.187 0 0 0-4.5-1Z"/><path style="opacity:.985" fill="#538ccb" d="M162.5 523.5a122.933 122.933 0 0 0 33 1.5c1.558-.21 2.891-.71 4-1.5 2.07-.051 3.903.615 5.5 2 2.847-1.194 5.68-1.194 8.5 0a4.457 4.457 0 0 1-2 1.5 151.663 151.663 0 0 1-30 3 883.179 883.179 0 0 1 19 2.5 78.47 78.47 0 0 0-10 2c-6.675.166-13.342 0-20-.5a84.208 84.208 0 0 0-19-3c-1.442-.377-2.442-1.21-3-2.5a63.81 63.81 0 0 1 12.5-3c1.03-.336 1.53-1.003 1.5-2Z"/><path style="opacity:.995" fill="#538ccb" d="m370.5 532.5-5 2c-6.675.166-13.342 0-20-.5-5.341-1.752-10.674-2.919-16-3.5 3.383.243 6.549-.424 9.5-2 1.398.551 2.732.884 4 1 1.87-1.243 4.036-1.91 6.5-2 7.27 1.236 14.27 2.903 21 5Z"/><path style="opacity:.992" fill="#538ccc" d="M344.5 524.5c9.61 1.187 19.276 1.187 29 0-.086.996.248 1.829 1 2.5l4 1c-.556.383-.889.883-1 1.5-1.879-.841-3.879-1.175-6-1 .268 1.599-.066 2.932-1 4-6.73-2.097-13.73-3.764-21-5-2.464.09-4.63.757-6.5 2-1.268-.116-2.602-.449-4-1-2.951 1.576-6.117 2.243-9.5 2a364.488 364.488 0 0 1-6-3c.462-1.38 1.462-2.047 3-2 1.482 1.615 3.316 2.615 5.5 3 2.011-1.512 4.011-2.179 6-2-.272-.829-1.106-1.329-2.5-1.5a40.914 40.914 0 0 1 9-.5Z"/><path style="opacity:.133" fill="#bac8e0" d="M135.5 523.5a51.315 51.315 0 0 0 13 5c.558 1.29 1.558 2.123 3 2.5a84.208 84.208 0 0 1 19 3c6.658.5 13.325.666 20 .5a260.63 260.63 0 0 1-23 1.5c.556.383.889.883 1 1.5a110.878 110.878 0 0 1-19-3.5l2-1a102.84 102.84 0 0 1-11-3l1-1c-3.503-.284-6.169-1.784-8-4.5.992.172 1.658-.162 2-1Z"/><path style="opacity:.016" fill="#b8c7d7" d="M233.5 518.5c.992-.172 1.658.162 2 1-3.676 3.093-7.676 5.927-12 8.5l-5 1 2 1-11 3 2 1c-3.187.001-6.02.834-8.5 2.5l-1-1a61.569 61.569 0 0 0-12 3 119.044 119.044 0 0 0-21.5-1c-.111-.617-.444-1.117-1-1.5a260.63 260.63 0 0 0 23-1.5 78.47 78.47 0 0 1 10-2 40.522 40.522 0 0 0 12-3.5 193.434 193.434 0 0 0 18-9.5 5.727 5.727 0 0 1 3-1Z"/></svg>